<?xml version="1.0" encoding="UTF-8" standalone="no"?>
<svg viewBox="0 0 50 50"
 xmlns="http://www.w3.org/2000/svg" xmlns:xlink="http://www.w3.org/1999/xlink"  version="1.2" baseProfile="tiny">
<title>Qt SVG Document</title>
<desc>Generated with Qt</desc>
<defs>
</defs>
<g fill="none" stroke="black" stroke-width="1" fill-rule="evenodd" stroke-linecap="square" stroke-linejoin="bevel" >

<g fill="#000000" fill-opacity="1" stroke="none" transform="matrix(2.27273,0,0,2.27273,-156.818,0)"
font-family="Noto Sans" font-size="10" font-weight="400" font-style="normal" 
opacity="0.001" >
<rect x="69" y="0" width="22" height="22"/>
</g>

<g fill="#dedede" fill-opacity="1" stroke="none" transform="matrix(2.27273,0,0,2.27273,-156.818,0)"
font-family="Noto Sans" font-size="10" font-weight="400" font-style="normal" 
opacity="0.5" >
<path vector-effect="none" fill-rule="nonzero" d="M76.0031,7.00023 L77.0028,7.00023 C77.0131,7.00011 77.0235,6.99977 77.034,7.00023 C77.2888,7.01143 77.5437,7.1288 77.7212,7.31272 L80.0016,9.5939 L82.3132,7.31272 C82.5787,7.08223 82.7597,7.00723 83.0004,7.00023 L84,7.00023 L84,8.0002 C84,8.28666 83.9657,8.55083 83.7501,8.75018 L81.4697,11.0314 L83.7189,13.2813 C83.907,13.4695 84,13.7347 84,14 L84,15 L83.0004,15 C82.7352,15 82.47,14.9069 82.2819,14.7188 L80.0016,12.4376 L77.7212,14.7188 C77.5331,14.9069 77.2679,15 77.0028,15 L76.0031,15 L76.0031,14 C76.0031,13.7347 76.0962,13.4695 76.2843,13.2813 L78.5646,11.0314 L76.2843,8.75018 C76.0736,8.55555 75.9812,8.28094 76.0031,8.0002 L76.0031,7.00023"/>
</g>

<g fill="none" stroke="#000000" stroke-opacity="1" stroke-width="1" stroke-linecap="square" stroke-linejoin="bevel" transform="matrix(1,0,0,1,0,0)"
font-family="Noto Sans" font-size="10" font-weight="400" font-style="normal" 
>
</g>
</g>
</svg>
