<?xml version="1.0" encoding="UTF-8" standalone="no"?>
<svg viewBox="0 0 50 50"
 xmlns="http://www.w3.org/2000/svg" xmlns:xlink="http://www.w3.org/1999/xlink"  version="1.2" baseProfile="tiny">
<title>Qt SVG Document</title>
<desc>Generated with Qt</desc>
<defs>
</defs>
<g fill="none" stroke="black" stroke-width="1" fill-rule="evenodd" stroke-linecap="square" stroke-linejoin="bevel" >

<g fill="#000000" fill-opacity="1" stroke="none" transform="matrix(2.27273,0,0,2.27273,-52.2727,0)"
font-family="Noto Sans" font-size="10" font-weight="400" font-style="normal" 
opacity="0.001" >
<rect x="23" y="0" width="22" height="22"/>
</g>

<g fill="#ffffff" fill-opacity="1" stroke="none" transform="matrix(2.27273,0,0,2.27273,-52.2727,0)"
font-family="Noto Sans" font-size="10" font-weight="400" font-style="normal" 
opacity="0.08" >
<circle cx="34" cy="11" r="11"/>
</g>

<g fill="#dedede" fill-opacity="1" stroke="none" transform="matrix(2.27273,0,0,2.27273,-52.2727,0)"
font-family="Noto Sans" font-size="10" font-weight="400" font-style="normal" 
>
<path vector-effect="none" fill-rule="nonzero" d="M30.0031,7.00023 L31.0028,7.00023 C31.0131,7.00011 31.0235,6.99977 31.034,7.00023 C31.2888,7.01143 31.5437,7.1288 31.7212,7.31272 L34.0016,9.5939 L36.3132,7.31272 C36.5787,7.08223 36.7597,7.00723 37.0004,7.00023 L38,7.00023 L38,8.0002 C38,8.28666 37.9657,8.55083 37.7501,8.75018 L35.4697,11.0314 L37.7189,13.2813 C37.907,13.4695 38,13.7347 38,14 L38,15 L37.0004,15 C36.7352,15 36.47,14.9069 36.2819,14.7188 L34.0016,12.4376 L31.7212,14.7188 C31.5331,14.9069 31.2679,15 31.0028,15 L30.0031,15 L30.0031,14 C30.0031,13.7347 30.0962,13.4695 30.2843,13.2813 L32.5646,11.0314 L30.2843,8.75018 C30.0736,8.55555 29.9812,8.28094 30.0031,8.0002 L30.0031,7.00023"/>
</g>

<g fill="none" stroke="#000000" stroke-opacity="1" stroke-width="1" stroke-linecap="square" stroke-linejoin="bevel" transform="matrix(1,0,0,1,0,0)"
font-family="Noto Sans" font-size="10" font-weight="400" font-style="normal" 
>
</g>
</g>
</svg>
